<mxfile host="65bd71144e">
    <diagram id="UaLp_aYed7sDHrJZGCwY" name="Medicine Logistics">
        <mxGraphModel dx="1076" dy="573" grid="1" gridSize="10" guides="1" tooltips="1" connect="1" arrows="1" fold="1" page="1" pageScale="1" pageWidth="2000" pageHeight="1600" background="#F1FAEE" math="0" shadow="0">
            <root>
                <mxCell id="0"/>
                <mxCell id="1" parent="0"/>
                <mxCell id="1sYgjcY_VEmMZmWDU-1L-13" value="" style="verticalLabelPosition=bottom;html=1;verticalAlign=top;align=center;shape=mxgraph.floorplan.wall;direction=south;rotation=0;" parent="1" vertex="1">
                    <mxGeometry x="70.51" y="50" width="10" height="830" as="geometry"/>
                </mxCell>
                <mxCell id="1sYgjcY_VEmMZmWDU-1L-14" value="" style="verticalLabelPosition=bottom;html=1;verticalAlign=top;align=center;shape=mxgraph.floorplan.wall;rotation=0;" parent="1" vertex="1">
                    <mxGeometry x="80" y="50" width="880" height="10" as="geometry"/>
                </mxCell>
                <mxCell id="1sYgjcY_VEmMZmWDU-1L-16" value="" style="verticalLabelPosition=bottom;html=1;verticalAlign=top;align=center;shape=mxgraph.floorplan.wall;direction=south;rotation=0;" parent="1" vertex="1">
                    <mxGeometry x="430.51" y="60" width="10" height="190" as="geometry"/>
                </mxCell>
                <mxCell id="1sYgjcY_VEmMZmWDU-1L-17" value="" style="verticalLabelPosition=bottom;html=1;verticalAlign=top;align=center;shape=mxgraph.floorplan.wall;direction=south;rotation=0;" parent="1" vertex="1">
                    <mxGeometry x="600.51" y="60" width="10" height="195" as="geometry"/>
                </mxCell>
                <mxCell id="1sYgjcY_VEmMZmWDU-1L-18" value="" style="verticalLabelPosition=bottom;html=1;verticalAlign=top;align=center;shape=mxgraph.floorplan.wall;direction=south;rotation=0;" parent="1" vertex="1">
                    <mxGeometry x="770.51" y="60" width="10" height="190" as="geometry"/>
                </mxCell>
                <mxCell id="1sYgjcY_VEmMZmWDU-1L-20" value="" style="verticalLabelPosition=bottom;html=1;verticalAlign=top;align=center;shape=mxgraph.floorplan.wall;rotation=0;" parent="1" vertex="1">
                    <mxGeometry x="670.51" y="245" width="120" height="10" as="geometry"/>
                </mxCell>
                <mxCell id="1sYgjcY_VEmMZmWDU-1L-21" value="" style="verticalLabelPosition=bottom;html=1;verticalAlign=top;align=center;shape=mxgraph.floorplan.wall;rotation=0;" parent="1" vertex="1">
                    <mxGeometry x="390.51" y="245" width="150" height="10" as="geometry"/>
                </mxCell>
                <mxCell id="1sYgjcY_VEmMZmWDU-1L-23" value="" style="verticalLabelPosition=bottom;html=1;verticalAlign=top;align=center;shape=mxgraph.floorplan.wall;rotation=0;" parent="1" vertex="1">
                    <mxGeometry x="840.51" y="245" width="119.49" height="10" as="geometry"/>
                </mxCell>
                <mxCell id="1sYgjcY_VEmMZmWDU-1L-24" value="" style="verticalLabelPosition=bottom;html=1;verticalAlign=top;align=center;shape=mxgraph.floorplan.wall;direction=south;rotation=0;" parent="1" vertex="1">
                    <mxGeometry x="950.51" y="50" width="10" height="727" as="geometry"/>
                </mxCell>
                <mxCell id="1sYgjcY_VEmMZmWDU-1L-25" value="" style="verticalLabelPosition=bottom;html=1;verticalAlign=top;align=center;shape=mxgraph.floorplan.wall;rotation=0;" parent="1" vertex="1">
                    <mxGeometry x="260.51" y="330" width="110" height="10" as="geometry"/>
                </mxCell>
                <mxCell id="1sYgjcY_VEmMZmWDU-1L-26" value="" style="verticalLabelPosition=bottom;html=1;verticalAlign=top;align=center;shape=mxgraph.floorplan.wall;rotation=0;" parent="1" vertex="1">
                    <mxGeometry x="80.50999999999999" y="615" width="280" height="10" as="geometry"/>
                </mxCell>
                <mxCell id="1sYgjcY_VEmMZmWDU-1L-30" value="" style="verticalLabelPosition=bottom;html=1;verticalAlign=top;align=center;shape=mxgraph.floorplan.wall;direction=south;rotation=0;" parent="1" vertex="1">
                    <mxGeometry x="590.51" y="490" width="10" height="10" as="geometry"/>
                </mxCell>
                <mxCell id="1sYgjcY_VEmMZmWDU-1L-31" value="" style="verticalLabelPosition=bottom;html=1;verticalAlign=top;align=center;shape=mxgraph.floorplan.wall;direction=south;rotation=0;" parent="1" vertex="1">
                    <mxGeometry x="890.51" y="330" width="10" height="160" as="geometry"/>
                </mxCell>
                <mxCell id="1sYgjcY_VEmMZmWDU-1L-33" value="" style="verticalLabelPosition=bottom;html=1;verticalAlign=top;align=center;shape=mxgraph.floorplan.wall;direction=south;rotation=0;" parent="1" vertex="1">
                    <mxGeometry x="460.51" y="480" width="10" height="150" as="geometry"/>
                </mxCell>
                <mxCell id="1sYgjcY_VEmMZmWDU-1L-34" value="" style="verticalLabelPosition=bottom;html=1;verticalAlign=top;align=center;shape=mxgraph.floorplan.wall;direction=south;rotation=0;" parent="1" vertex="1">
                    <mxGeometry x="360.51" y="330" width="10" height="310" as="geometry"/>
                </mxCell>
                <mxCell id="1sYgjcY_VEmMZmWDU-1L-35" value="" style="verticalLabelPosition=bottom;html=1;verticalAlign=top;align=center;shape=mxgraph.floorplan.wall;rotation=0;" parent="1" vertex="1">
                    <mxGeometry x="600.51" y="330" width="290" height="10" as="geometry"/>
                </mxCell>
                <mxCell id="1sYgjcY_VEmMZmWDU-1L-36" value="" style="verticalLabelPosition=bottom;html=1;verticalAlign=top;align=center;shape=mxgraph.floorplan.wall;direction=south;rotation=0;" parent="1" vertex="1">
                    <mxGeometry x="460.51" y="330" width="10" height="310" as="geometry"/>
                </mxCell>
                <mxCell id="1sYgjcY_VEmMZmWDU-1L-37" value="" style="verticalLabelPosition=bottom;html=1;verticalAlign=top;align=center;shape=mxgraph.floorplan.wall;rotation=0;" parent="1" vertex="1">
                    <mxGeometry x="80.50999999999999" y="730" width="290" height="10" as="geometry"/>
                </mxCell>
                <mxCell id="1sYgjcY_VEmMZmWDU-1L-38" value="" style="verticalLabelPosition=bottom;html=1;verticalAlign=top;align=center;shape=mxgraph.floorplan.wall;rotation=0;" parent="1" vertex="1">
                    <mxGeometry x="70.50999999999999" y="860" width="160" height="10" as="geometry"/>
                </mxCell>
                <mxCell id="1sYgjcY_VEmMZmWDU-1L-39" value="" style="verticalLabelPosition=bottom;html=1;verticalAlign=top;align=center;shape=mxgraph.floorplan.wall;rotation=0;" parent="1" vertex="1">
                    <mxGeometry x="80.50999999999999" y="980" width="280" height="10" as="geometry"/>
                </mxCell>
                <mxCell id="1sYgjcY_VEmMZmWDU-1L-40" value="" style="verticalLabelPosition=bottom;html=1;verticalAlign=top;align=center;shape=mxgraph.floorplan.wall;direction=south;rotation=0;" parent="1" vertex="1">
                    <mxGeometry x="360.51" y="1000" width="10" height="60" as="geometry"/>
                </mxCell>
                <mxCell id="1sYgjcY_VEmMZmWDU-1L-41" value="" style="verticalLabelPosition=bottom;html=1;verticalAlign=top;align=center;shape=mxgraph.floorplan.wall;direction=south;rotation=0;" parent="1" vertex="1">
                    <mxGeometry x="229.51" y="1020" width="10" height="270" as="geometry"/>
                </mxCell>
                <mxCell id="1sYgjcY_VEmMZmWDU-1L-42" value="" style="verticalLabelPosition=bottom;html=1;verticalAlign=top;align=center;shape=mxgraph.floorplan.wall;rotation=0;" parent="1" vertex="1">
                    <mxGeometry x="240.51" y="1110" width="130" height="10" as="geometry"/>
                </mxCell>
                <mxCell id="1sYgjcY_VEmMZmWDU-1L-43" value="" style="verticalLabelPosition=bottom;html=1;verticalAlign=top;align=center;shape=mxgraph.floorplan.wall;direction=south;rotation=0;" parent="1" vertex="1">
                    <mxGeometry x="360.51" y="1180" width="10" height="110" as="geometry"/>
                </mxCell>
                <mxCell id="1sYgjcY_VEmMZmWDU-1L-44" value="" style="verticalLabelPosition=bottom;html=1;verticalAlign=top;align=center;shape=mxgraph.floorplan.wall;rotation=0;" parent="1" vertex="1">
                    <mxGeometry x="210.51" y="1280" width="160" height="10" as="geometry"/>
                </mxCell>
                <mxCell id="1sYgjcY_VEmMZmWDU-1L-45" value="" style="verticalLabelPosition=bottom;html=1;verticalAlign=top;align=center;shape=mxgraph.floorplan.wall;rotation=0;" parent="1" vertex="1">
                    <mxGeometry x="80.50999999999999" y="1280" width="80" height="10" as="geometry"/>
                </mxCell>
                <mxCell id="1sYgjcY_VEmMZmWDU-1L-47" value="" style="verticalLabelPosition=bottom;html=1;verticalAlign=top;align=center;shape=mxgraph.floorplan.wall;direction=south;rotation=0;" parent="1" vertex="1">
                    <mxGeometry x="460.51" y="980" width="10" height="30" as="geometry"/>
                </mxCell>
                <mxCell id="1sYgjcY_VEmMZmWDU-1L-48" value="" style="verticalLabelPosition=bottom;html=1;verticalAlign=top;align=center;shape=mxgraph.floorplan.wall;direction=south;rotation=0;" parent="1" vertex="1">
                    <mxGeometry x="600.51" y="1000" width="10" height="10" as="geometry"/>
                </mxCell>
                <mxCell id="1sYgjcY_VEmMZmWDU-1L-49" value="" style="verticalLabelPosition=bottom;html=1;verticalAlign=top;align=center;shape=mxgraph.floorplan.wall;rotation=0;" parent="1" vertex="1">
                    <mxGeometry x="610.51" y="1110" width="120" height="10" as="geometry"/>
                </mxCell>
                <mxCell id="1sYgjcY_VEmMZmWDU-1L-50" value="" style="verticalLabelPosition=bottom;html=1;verticalAlign=top;align=center;shape=mxgraph.floorplan.wall;rotation=0;" parent="1" vertex="1">
                    <mxGeometry x="730.51" y="989" width="17" height="10" as="geometry"/>
                </mxCell>
                <mxCell id="1sYgjcY_VEmMZmWDU-1L-52" value="" style="verticalLabelPosition=bottom;html=1;verticalAlign=top;align=center;shape=mxgraph.floorplan.wall;direction=south;rotation=0;" parent="1" vertex="1">
                    <mxGeometry x="890.51" y="1110" width="10" height="170" as="geometry"/>
                </mxCell>
                <mxCell id="1sYgjcY_VEmMZmWDU-1L-53" value="" style="verticalLabelPosition=bottom;html=1;verticalAlign=top;align=center;shape=mxgraph.floorplan.wall;rotation=0;" parent="1" vertex="1">
                    <mxGeometry x="470.51" y="1170" width="140" height="10" as="geometry"/>
                </mxCell>
                <mxCell id="1sYgjcY_VEmMZmWDU-1L-55" value="" style="verticalLabelPosition=bottom;html=1;verticalAlign=top;align=center;shape=mxgraph.floorplan.wall;rotation=0;" parent="1" vertex="1">
                    <mxGeometry x="80.50999999999999" y="330" width="90" height="10" as="geometry"/>
                </mxCell>
                <mxCell id="1sYgjcY_VEmMZmWDU-1L-56" value="" style="verticalLabelPosition=bottom;html=1;verticalAlign=top;align=center;shape=mxgraph.floorplan.wall;rotation=0;" parent="1" vertex="1">
                    <mxGeometry x="460.51" y="480" width="240" height="10" as="geometry"/>
                </mxCell>
                <mxCell id="1sYgjcY_VEmMZmWDU-1L-57" value="" style="verticalLabelPosition=bottom;html=1;verticalAlign=top;align=center;shape=mxgraph.floorplan.wall;direction=south;rotation=0;" parent="1" vertex="1">
                    <mxGeometry x="360.51" y="720" width="10" height="10" as="geometry"/>
                </mxCell>
                <mxCell id="1sYgjcY_VEmMZmWDU-1L-59" value="" style="verticalLabelPosition=bottom;html=1;verticalAlign=top;align=center;shape=mxgraph.floorplan.wall;rotation=0;" parent="1" vertex="1">
                    <mxGeometry x="600.51" y="980" width="10" height="10" as="geometry"/>
                </mxCell>
                <mxCell id="1sYgjcY_VEmMZmWDU-1L-60" value="" style="verticalLabelPosition=bottom;html=1;verticalAlign=top;align=center;shape=mxgraph.floorplan.wall;rotation=0;" parent="1" vertex="1">
                    <mxGeometry x="870.51" y="330" width="10" height="10" as="geometry"/>
                </mxCell>
                <mxCell id="1sYgjcY_VEmMZmWDU-1L-61" value="" style="verticalLabelPosition=bottom;html=1;verticalAlign=top;align=center;shape=mxgraph.floorplan.wall;rotation=0;" parent="1" vertex="1">
                    <mxGeometry x="460.51" y="330" width="30" height="10" as="geometry"/>
                </mxCell>
                <mxCell id="1sYgjcY_VEmMZmWDU-1L-62" value="" style="verticalLabelPosition=bottom;html=1;verticalAlign=top;align=center;shape=mxgraph.floorplan.wall;rotation=0;" parent="1" vertex="1">
                    <mxGeometry x="540.51" y="330" width="60" height="10" as="geometry"/>
                </mxCell>
                <mxCell id="1sYgjcY_VEmMZmWDU-1L-63" value="" style="verticalLabelPosition=bottom;html=1;verticalAlign=top;align=center;shape=mxgraph.floorplan.wall;direction=south;rotation=0;" parent="1" vertex="1">
                    <mxGeometry x="950.45" y="1000" width="10" height="550" as="geometry"/>
                </mxCell>
                <mxCell id="1sYgjcY_VEmMZmWDU-1L-73" value="" style="verticalLabelPosition=bottom;html=1;verticalAlign=top;align=center;shape=mxgraph.floorplan.wall;rotation=0;" parent="1" vertex="1">
                    <mxGeometry x="1030.51" y="50" width="890" height="10" as="geometry"/>
                </mxCell>
                <mxCell id="1sYgjcY_VEmMZmWDU-1L-74" value="" style="verticalLabelPosition=bottom;html=1;verticalAlign=top;align=center;shape=mxgraph.floorplan.wall;direction=south;rotation=0;" parent="1" vertex="1">
                    <mxGeometry x="1220.51" y="60" width="10" height="195" as="geometry"/>
                </mxCell>
                <mxCell id="1sYgjcY_VEmMZmWDU-1L-75" value="" style="verticalLabelPosition=bottom;html=1;verticalAlign=top;align=center;shape=mxgraph.floorplan.wall;direction=south;rotation=0;" parent="1" vertex="1">
                    <mxGeometry x="1389.51" y="60" width="10" height="100" as="geometry"/>
                </mxCell>
                <mxCell id="1sYgjcY_VEmMZmWDU-1L-77" value="" style="verticalLabelPosition=bottom;html=1;verticalAlign=top;align=center;shape=mxgraph.floorplan.wall;rotation=0;" parent="1" vertex="1">
                    <mxGeometry x="1279.51" y="245" width="70" height="10" as="geometry"/>
                </mxCell>
                <mxCell id="1sYgjcY_VEmMZmWDU-1L-78" value="" style="verticalLabelPosition=bottom;html=1;verticalAlign=top;align=center;shape=mxgraph.floorplan.wall;rotation=0;" parent="1" vertex="1">
                    <mxGeometry x="1039.51" y="245" width="130" height="10" as="geometry"/>
                </mxCell>
                <mxCell id="1sYgjcY_VEmMZmWDU-1L-79" value="" style="verticalLabelPosition=bottom;html=1;verticalAlign=top;align=center;shape=mxgraph.floorplan.wall;direction=south;rotation=0;" parent="1" vertex="1">
                    <mxGeometry x="1560.51" y="60" width="10" height="195" as="geometry"/>
                </mxCell>
                <mxCell id="1sYgjcY_VEmMZmWDU-1L-80" value="" style="verticalLabelPosition=bottom;html=1;verticalAlign=top;align=center;shape=mxgraph.floorplan.wall;direction=south;rotation=0;" parent="1" vertex="1">
                    <mxGeometry x="1729.51" y="60" width="10" height="100" as="geometry"/>
                </mxCell>
                <mxCell id="1sYgjcY_VEmMZmWDU-1L-82" value="" style="verticalLabelPosition=bottom;html=1;verticalAlign=top;align=center;shape=mxgraph.floorplan.wall;rotation=0;" parent="1" vertex="1">
                    <mxGeometry x="1619.51" y="245" width="70" height="10" as="geometry"/>
                </mxCell>
                <mxCell id="1sYgjcY_VEmMZmWDU-1L-83" value="" style="verticalLabelPosition=bottom;html=1;verticalAlign=top;align=center;shape=mxgraph.floorplan.wall;rotation=0;" parent="1" vertex="1">
                    <mxGeometry x="1399.51" y="245" width="110" height="10" as="geometry"/>
                </mxCell>
                <mxCell id="1sYgjcY_VEmMZmWDU-1L-85" value="" style="verticalLabelPosition=bottom;html=1;verticalAlign=top;align=center;shape=mxgraph.floorplan.wall;rotation=0;" parent="1" vertex="1">
                    <mxGeometry x="1789.51" y="245" width="130.49" height="10" as="geometry"/>
                </mxCell>
                <mxCell id="1sYgjcY_VEmMZmWDU-1L-86" value="" style="verticalLabelPosition=bottom;html=1;verticalAlign=top;align=center;shape=mxgraph.floorplan.wall;rotation=0;connectable=0;allowArrows=0;recursiveResize=0;expand=0;" parent="1" vertex="1">
                    <mxGeometry x="1040.51" y="1540" width="880" height="10" as="geometry"/>
                </mxCell>
                <mxCell id="1sYgjcY_VEmMZmWDU-1L-87" value="" style="verticalLabelPosition=bottom;html=1;verticalAlign=top;align=center;shape=mxgraph.floorplan.wall;rotation=0;" parent="1" vertex="1">
                    <mxGeometry x="1030.51" y="1370" width="80" height="10" as="geometry"/>
                </mxCell>
                <mxCell id="1sYgjcY_VEmMZmWDU-1L-88" value="" style="verticalLabelPosition=bottom;html=1;verticalAlign=top;align=center;shape=mxgraph.floorplan.wall;rotation=0;" parent="1" vertex="1">
                    <mxGeometry x="1220.51" y="1370" width="80" height="10" as="geometry"/>
                </mxCell>
                <mxCell id="1sYgjcY_VEmMZmWDU-1L-93" value="" style="verticalLabelPosition=bottom;html=1;verticalAlign=top;align=center;shape=mxgraph.floorplan.wall;rotation=0;" parent="1" vertex="1">
                    <mxGeometry x="1410.51" y="1370" width="120" height="10" as="geometry"/>
                </mxCell>
                <mxCell id="1sYgjcY_VEmMZmWDU-1L-94" value="" style="verticalLabelPosition=bottom;html=1;verticalAlign=top;align=center;shape=mxgraph.floorplan.wall;rotation=0;" parent="1" vertex="1">
                    <mxGeometry x="1590.51" y="1370" width="50" height="10" as="geometry"/>
                </mxCell>
                <mxCell id="1sYgjcY_VEmMZmWDU-1L-95" value="" style="verticalLabelPosition=bottom;html=1;verticalAlign=top;align=center;shape=mxgraph.floorplan.wall;rotation=0;" parent="1" vertex="1">
                    <mxGeometry x="1640.51" y="1370" width="90" height="10" as="geometry"/>
                </mxCell>
                <mxCell id="1sYgjcY_VEmMZmWDU-1L-96" value="" style="verticalLabelPosition=bottom;html=1;verticalAlign=top;align=center;shape=mxgraph.floorplan.wall;rotation=0;" parent="1" vertex="1">
                    <mxGeometry x="1840.51" y="1370" width="70" height="10" as="geometry"/>
                </mxCell>
                <mxCell id="1sYgjcY_VEmMZmWDU-1L-97" value="" style="verticalLabelPosition=bottom;html=1;verticalAlign=top;align=center;shape=mxgraph.floorplan.wall;rotation=0;" parent="1" vertex="1">
                    <mxGeometry x="1300.51" y="1370" width="60" height="10" as="geometry"/>
                </mxCell>
                <mxCell id="1sYgjcY_VEmMZmWDU-1L-98" value="" style="verticalLabelPosition=bottom;html=1;verticalAlign=top;align=center;shape=mxgraph.floorplan.wall;direction=south;rotation=0;" parent="1" vertex="1">
                    <mxGeometry x="1280.51" y="1370" width="10" height="170" as="geometry"/>
                </mxCell>
                <mxCell id="1sYgjcY_VEmMZmWDU-1L-99" value="" style="verticalLabelPosition=bottom;html=1;verticalAlign=top;align=center;shape=mxgraph.floorplan.wall;direction=south;rotation=0;" parent="1" vertex="1">
                    <mxGeometry x="1520.51" y="1370" width="10" height="170" as="geometry"/>
                </mxCell>
                <mxCell id="1sYgjcY_VEmMZmWDU-1L-100" value="" style="verticalLabelPosition=bottom;html=1;verticalAlign=top;align=center;shape=mxgraph.floorplan.wall;direction=south;rotation=0;" parent="1" vertex="1">
                    <mxGeometry x="1650.51" y="1370" width="10" height="170" as="geometry"/>
                </mxCell>
                <mxCell id="1sYgjcY_VEmMZmWDU-1L-101" value="" style="verticalLabelPosition=bottom;html=1;verticalAlign=top;align=center;shape=mxgraph.floorplan.wall;direction=south;rotation=0;" parent="1" vertex="1">
                    <mxGeometry x="1780.51" y="1370" width="10" height="170" as="geometry"/>
                </mxCell>
                <mxCell id="1sYgjcY_VEmMZmWDU-1L-103" value="" style="verticalLabelPosition=bottom;html=1;verticalAlign=top;align=center;shape=mxgraph.floorplan.wall;rotation=0;" parent="1" vertex="1">
                    <mxGeometry x="1140.51" y="330" width="49.49" height="10" as="geometry"/>
                </mxCell>
                <mxCell id="1sYgjcY_VEmMZmWDU-1L-104" value="" style="verticalLabelPosition=bottom;html=1;verticalAlign=top;align=center;shape=mxgraph.floorplan.wall;rotation=0;" parent="1" vertex="1">
                    <mxGeometry x="1039.51" y="590" width="110" height="10" as="geometry"/>
                </mxCell>
                <mxCell id="1sYgjcY_VEmMZmWDU-1L-105" value="" style="verticalLabelPosition=bottom;html=1;verticalAlign=top;align=center;shape=mxgraph.floorplan.wall;direction=south;rotation=0;" parent="1" vertex="1">
                    <mxGeometry x="1183.51" y="330" width="10" height="170" as="geometry"/>
                </mxCell>
                <mxCell id="1sYgjcY_VEmMZmWDU-1L-113" value="" style="verticalLabelPosition=bottom;html=1;verticalAlign=top;align=center;shape=mxgraph.floorplan.wall;direction=south;rotation=0;" parent="1" vertex="1">
                    <mxGeometry x="1550.51" y="330" width="10" height="310" as="geometry"/>
                </mxCell>
                <mxCell id="1sYgjcY_VEmMZmWDU-1L-114" value="" style="verticalLabelPosition=bottom;html=1;verticalAlign=top;align=center;shape=mxgraph.floorplan.wall;direction=south;rotation=0;" parent="1" vertex="1">
                    <mxGeometry x="1850.51" y="330" width="10" height="250" as="geometry"/>
                </mxCell>
                <mxCell id="1sYgjcY_VEmMZmWDU-1L-117" value="" style="verticalLabelPosition=bottom;html=1;verticalAlign=top;align=center;shape=mxgraph.floorplan.wall;rotation=0;" parent="1" vertex="1">
                    <mxGeometry x="1510.51" y="630" width="280" height="10" as="geometry"/>
                </mxCell>
                <mxCell id="1sYgjcY_VEmMZmWDU-1L-118" value="" style="verticalLabelPosition=bottom;html=1;verticalAlign=top;align=center;shape=mxgraph.floorplan.wall;direction=south;rotation=0;" parent="1" vertex="1">
                    <mxGeometry x="1420.51" y="480" width="10" height="160" as="geometry"/>
                </mxCell>
                <mxCell id="1sYgjcY_VEmMZmWDU-1L-120" value="" style="verticalLabelPosition=bottom;html=1;verticalAlign=top;align=center;shape=mxgraph.floorplan.wall;direction=south;rotation=0;" parent="1" vertex="1">
                    <mxGeometry x="1319.51" y="410" width="10" height="200" as="geometry"/>
                </mxCell>
                <mxCell id="1sYgjcY_VEmMZmWDU-1L-121" value="" style="verticalLabelPosition=bottom;html=1;verticalAlign=top;align=center;shape=mxgraph.floorplan.wall;rotation=0;" parent="1" vertex="1">
                    <mxGeometry x="1570.51" y="330" width="200" height="10" as="geometry"/>
                </mxCell>
                <mxCell id="1sYgjcY_VEmMZmWDU-1L-122" value="" style="verticalLabelPosition=bottom;html=1;verticalAlign=top;align=center;shape=mxgraph.floorplan.wall;direction=south;rotation=0;" parent="1" vertex="1">
                    <mxGeometry x="1420.51" y="330" width="10" height="160" as="geometry"/>
                </mxCell>
                <mxCell id="1sYgjcY_VEmMZmWDU-1L-123" value="" style="verticalLabelPosition=bottom;html=1;verticalAlign=top;align=center;shape=mxgraph.floorplan.wall;rotation=0;" parent="1" vertex="1">
                    <mxGeometry x="1039.51" y="730" width="290" height="10" as="geometry"/>
                </mxCell>
                <mxCell id="1sYgjcY_VEmMZmWDU-1L-124" value="" style="verticalLabelPosition=bottom;html=1;verticalAlign=top;align=center;shape=mxgraph.floorplan.wall;direction=south;rotation=0;" parent="1" vertex="1">
                    <mxGeometry x="1320.51" y="980" width="10" height="80" as="geometry"/>
                </mxCell>
                <mxCell id="1sYgjcY_VEmMZmWDU-1L-125" value="" style="verticalLabelPosition=bottom;html=1;verticalAlign=top;align=center;shape=mxgraph.floorplan.wall;rotation=0;" parent="1" vertex="1">
                    <mxGeometry x="1230.51" y="1280" width="90" height="10" as="geometry"/>
                </mxCell>
                <mxCell id="1sYgjcY_VEmMZmWDU-1L-126" value="" style="verticalLabelPosition=bottom;html=1;verticalAlign=top;align=center;shape=mxgraph.floorplan.wall;direction=south;rotation=0;" parent="1" vertex="1">
                    <mxGeometry x="1320.51" y="1055" width="10" height="235" as="geometry"/>
                </mxCell>
                <mxCell id="1sYgjcY_VEmMZmWDU-1L-127" value="" style="verticalLabelPosition=bottom;html=1;verticalAlign=top;align=center;shape=mxgraph.floorplan.wall;rotation=0;" parent="1" vertex="1">
                    <mxGeometry x="1040.51" y="1280" width="100" height="10" as="geometry"/>
                </mxCell>
                <mxCell id="1sYgjcY_VEmMZmWDU-1L-129" value="" style="verticalLabelPosition=bottom;html=1;verticalAlign=top;align=center;shape=mxgraph.floorplan.wall;rotation=0;" parent="1" vertex="1">
                    <mxGeometry x="1039.51" y="330" width="51" height="10" as="geometry"/>
                </mxCell>
                <mxCell id="1sYgjcY_VEmMZmWDU-1L-130" value="" style="verticalLabelPosition=bottom;html=1;verticalAlign=top;align=center;shape=mxgraph.floorplan.wall;rotation=0;" parent="1" vertex="1">
                    <mxGeometry x="1420.51" y="480" width="130" height="10" as="geometry"/>
                </mxCell>
                <mxCell id="1sYgjcY_VEmMZmWDU-1L-131" value="" style="verticalLabelPosition=bottom;html=1;verticalAlign=top;align=center;shape=mxgraph.floorplan.wall;direction=south;rotation=0;" parent="1" vertex="1">
                    <mxGeometry x="1319.51" y="720" width="10" height="10" as="geometry"/>
                </mxCell>
                <mxCell id="1sYgjcY_VEmMZmWDU-1L-135" value="" style="verticalLabelPosition=bottom;html=1;verticalAlign=top;align=center;shape=mxgraph.floorplan.wall;rotation=0;" parent="1" vertex="1">
                    <mxGeometry x="1180" y="330" width="140.51" height="10" as="geometry"/>
                </mxCell>
                <mxCell id="1sYgjcY_VEmMZmWDU-1L-136" value="" style="verticalLabelPosition=bottom;html=1;verticalAlign=top;align=center;shape=mxgraph.floorplan.wall;rotation=0;" parent="1" vertex="1">
                    <mxGeometry x="1820.51" y="330" width="40" height="10" as="geometry"/>
                </mxCell>
                <mxCell id="1sYgjcY_VEmMZmWDU-1L-137" value="" style="verticalLabelPosition=bottom;html=1;verticalAlign=top;align=center;shape=mxgraph.floorplan.wall;rotation=0;" parent="1" vertex="1">
                    <mxGeometry x="1420.51" y="330" width="30" height="10" as="geometry"/>
                </mxCell>
                <mxCell id="1sYgjcY_VEmMZmWDU-1L-138" value="" style="verticalLabelPosition=bottom;html=1;verticalAlign=top;align=center;shape=mxgraph.floorplan.wall;rotation=0;" parent="1" vertex="1">
                    <mxGeometry x="1500.51" y="330" width="70" height="10" as="geometry"/>
                </mxCell>
                <mxCell id="1sYgjcY_VEmMZmWDU-1L-150" value="" style="verticalLabelPosition=bottom;html=1;verticalAlign=top;align=center;shape=mxgraph.floorplan.wall;rotation=-180;direction=east;" parent="1" vertex="1">
                    <mxGeometry x="169.48" y="1540" width="786.36" height="10" as="geometry"/>
                </mxCell>
                <mxCell id="1sYgjcY_VEmMZmWDU-1L-152" value="" style="verticalLabelPosition=bottom;html=1;verticalAlign=top;align=center;shape=mxgraph.floorplan.wall;direction=south;rotation=-180;" parent="1" vertex="1">
                    <mxGeometry x="758.48" y="1375" width="10" height="165" as="geometry"/>
                </mxCell>
                <mxCell id="1sYgjcY_VEmMZmWDU-1L-153" value="" style="verticalLabelPosition=bottom;html=1;verticalAlign=top;align=center;shape=mxgraph.floorplan.wall;direction=south;rotation=-180;" parent="1" vertex="1">
                    <mxGeometry x="589.48" y="1380" width="10" height="160" as="geometry"/>
                </mxCell>
                <mxCell id="1sYgjcY_VEmMZmWDU-1L-154" value="" style="verticalLabelPosition=bottom;html=1;verticalAlign=top;align=center;shape=mxgraph.floorplan.wall;rotation=-180;direction=east;" parent="1" vertex="1">
                    <mxGeometry x="640.51" y="1370" width="60" height="10" as="geometry"/>
                </mxCell>
                <mxCell id="1sYgjcY_VEmMZmWDU-1L-155" value="" style="verticalLabelPosition=bottom;html=1;verticalAlign=top;align=center;shape=mxgraph.floorplan.wall;rotation=-180;direction=east;" parent="1" vertex="1">
                    <mxGeometry x="830.51" y="1370" width="120" height="10" as="geometry"/>
                </mxCell>
                <mxCell id="1sYgjcY_VEmMZmWDU-1L-156" value="" style="verticalLabelPosition=bottom;html=1;verticalAlign=top;align=center;shape=mxgraph.floorplan.wall;direction=south;rotation=-180;" parent="1" vertex="1">
                    <mxGeometry x="418.48" y="1375" width="10" height="165" as="geometry"/>
                </mxCell>
                <mxCell id="1sYgjcY_VEmMZmWDU-1L-157" value="" style="verticalLabelPosition=bottom;html=1;verticalAlign=top;align=center;shape=mxgraph.floorplan.wall;direction=south;rotation=-180;" parent="1" vertex="1">
                    <mxGeometry x="249.48000000000002" y="1380" width="10" height="160" as="geometry"/>
                </mxCell>
                <mxCell id="1sYgjcY_VEmMZmWDU-1L-158" value="" style="verticalLabelPosition=bottom;html=1;verticalAlign=top;align=center;shape=mxgraph.floorplan.wall;rotation=-180;direction=east;" parent="1" vertex="1">
                    <mxGeometry x="240.51" y="1370" width="120" height="10" as="geometry"/>
                </mxCell>
                <mxCell id="1sYgjcY_VEmMZmWDU-1L-159" value="" style="verticalLabelPosition=bottom;html=1;verticalAlign=top;align=center;shape=mxgraph.floorplan.wall;rotation=-180;direction=east;" parent="1" vertex="1">
                    <mxGeometry x="490.51" y="1370" width="150" height="10" as="geometry"/>
                </mxCell>
                <mxCell id="1sYgjcY_VEmMZmWDU-1L-160" value="" style="verticalLabelPosition=bottom;html=1;verticalAlign=top;align=center;shape=mxgraph.floorplan.wall;rotation=-180;direction=east;" parent="1" vertex="1">
                    <mxGeometry x="80.50999999999999" y="1370" width="110" height="10" as="geometry"/>
                </mxCell>
                <mxCell id="1sYgjcY_VEmMZmWDU-1L-175" value="" style="verticalLabelPosition=bottom;html=1;verticalAlign=top;align=center;shape=mxgraph.floorplan.wall;rotation=0;" parent="1" vertex="1">
                    <mxGeometry x="810.51" y="1280" width="90" height="10" as="geometry"/>
                </mxCell>
                <mxCell id="1sYgjcY_VEmMZmWDU-1L-177" value="" style="verticalLabelPosition=bottom;html=1;verticalAlign=top;align=center;shape=mxgraph.floorplan.wall;rotation=-180;direction=east;" parent="1" vertex="1">
                    <mxGeometry x="412.51" y="1370" width="24" height="10" as="geometry"/>
                </mxCell>
                <mxCell id="1sYgjcY_VEmMZmWDU-1L-178" value="" style="verticalLabelPosition=bottom;html=1;verticalAlign=top;align=center;shape=mxgraph.floorplan.wall;rotation=-180;direction=east;" parent="1" vertex="1">
                    <mxGeometry x="751.48" y="1370" width="24" height="10" as="geometry"/>
                </mxCell>
                <mxCell id="1sYgjcY_VEmMZmWDU-1L-186" value="" style="verticalLabelPosition=bottom;html=1;verticalAlign=top;align=center;shape=mxgraph.floorplan.wall;direction=south;rotation=0;" parent="1" vertex="1">
                    <mxGeometry x="890.51" y="1010" width="10" height="100" as="geometry"/>
                </mxCell>
                <mxCell id="1sYgjcY_VEmMZmWDU-1L-187" value="" style="verticalLabelPosition=bottom;html=1;verticalAlign=top;align=center;shape=mxgraph.floorplan.wall;direction=south;rotation=0;" parent="1" vertex="1">
                    <mxGeometry x="1030.51" y="1020" width="10" height="530" as="geometry"/>
                </mxCell>
                <mxCell id="1sYgjcY_VEmMZmWDU-1L-188" value="" style="verticalLabelPosition=bottom;html=1;verticalAlign=top;align=center;shape=mxgraph.floorplan.wall;direction=south;rotation=0;" parent="1" vertex="1">
                    <mxGeometry x="229.51" y="980" width="10" height="40" as="geometry"/>
                </mxCell>
                <mxCell id="1sYgjcY_VEmMZmWDU-1L-189" value="" style="verticalLabelPosition=bottom;html=1;verticalAlign=top;align=center;shape=mxgraph.floorplan.wall;direction=south;rotation=0;" parent="1" vertex="1">
                    <mxGeometry x="360.51" y="980" width="10" height="20" as="geometry"/>
                </mxCell>
                <mxCell id="1sYgjcY_VEmMZmWDU-1L-190" value="" style="verticalLabelPosition=bottom;html=1;verticalAlign=top;align=center;shape=mxgraph.floorplan.wall;direction=south;rotation=0;" parent="1" vertex="1">
                    <mxGeometry x="460.51" y="1010" width="10" height="200" as="geometry"/>
                </mxCell>
                <mxCell id="1sYgjcY_VEmMZmWDU-1L-191" value="" style="verticalLabelPosition=bottom;html=1;verticalAlign=top;align=center;shape=mxgraph.floorplan.wall;direction=south;rotation=0;" parent="1" vertex="1">
                    <mxGeometry x="600.51" y="980" width="10" height="20" as="geometry"/>
                </mxCell>
                <mxCell id="1sYgjcY_VEmMZmWDU-1L-192" value="" style="verticalLabelPosition=bottom;html=1;verticalAlign=top;align=center;shape=mxgraph.floorplan.wall;direction=south;rotation=0;" parent="1" vertex="1">
                    <mxGeometry x="890.51" y="990" width="10" height="20" as="geometry"/>
                </mxCell>
                <mxCell id="1sYgjcY_VEmMZmWDU-1L-193" value="" style="verticalLabelPosition=bottom;html=1;verticalAlign=top;align=center;shape=mxgraph.floorplan.wall;direction=south;rotation=0;" parent="1" vertex="1">
                    <mxGeometry x="950.45" y="880" width="10" height="130" as="geometry"/>
                </mxCell>
                <mxCell id="1sYgjcY_VEmMZmWDU-1L-194" value="" style="verticalLabelPosition=bottom;html=1;verticalAlign=top;align=center;shape=mxgraph.floorplan.wall;direction=south;rotation=0;" parent="1" vertex="1">
                    <mxGeometry x="1030.51" y="50" width="10" height="970" as="geometry"/>
                </mxCell>
                <mxCell id="1sYgjcY_VEmMZmWDU-1L-195" value="" style="verticalLabelPosition=bottom;html=1;verticalAlign=top;align=center;shape=mxgraph.floorplan.wall;rotation=0;" parent="1" vertex="1">
                    <mxGeometry x="1040.51" y="980" width="280" height="10" as="geometry"/>
                </mxCell>
                <mxCell id="1sYgjcY_VEmMZmWDU-1L-196" value="" style="verticalLabelPosition=bottom;html=1;verticalAlign=top;align=center;shape=mxgraph.floorplan.wall;direction=south;rotation=0;" parent="1" vertex="1">
                    <mxGeometry x="1320.51" y="980" width="10" height="20" as="geometry"/>
                </mxCell>
                <mxCell id="1sYgjcY_VEmMZmWDU-1L-197" value="" style="verticalLabelPosition=bottom;html=1;verticalAlign=top;align=center;shape=mxgraph.floorplan.wall;direction=south;rotation=0;" parent="1" vertex="1">
                    <mxGeometry x="1910.45" y="50" width="10" height="960" as="geometry"/>
                </mxCell>
                <mxCell id="1sYgjcY_VEmMZmWDU-1L-198" value="" style="verticalLabelPosition=bottom;html=1;verticalAlign=top;align=center;shape=mxgraph.floorplan.wall;direction=south;rotation=0;" parent="1" vertex="1">
                    <mxGeometry x="1910.51" y="1010" width="10" height="540" as="geometry"/>
                </mxCell>
                <mxCell id="1sYgjcY_VEmMZmWDU-1L-210" value="" style="verticalLabelPosition=bottom;html=1;verticalAlign=top;align=center;shape=mxgraph.floorplan.wall;direction=south;rotation=0;" parent="1" vertex="1">
                    <mxGeometry x="1319.51" y="330" width="10" height="30" as="geometry"/>
                </mxCell>
                <mxCell id="1sYgjcY_VEmMZmWDU-1L-220" value="" style="verticalLabelPosition=bottom;html=1;verticalAlign=top;align=center;shape=mxgraph.floorplan.wall;direction=south;rotation=0;" parent="1" vertex="1">
                    <mxGeometry x="590.51" y="530" width="10" height="110" as="geometry"/>
                </mxCell>
                <mxCell id="1sYgjcY_VEmMZmWDU-1L-221" value="" style="verticalLabelPosition=bottom;html=1;verticalAlign=top;align=center;shape=mxgraph.floorplan.wall;rotation=0;" parent="1" vertex="1">
                    <mxGeometry x="1420.51" y="630" width="40" height="10" as="geometry"/>
                </mxCell>
                <mxCell id="1sYgjcY_VEmMZmWDU-1L-222" value="" style="verticalLabelPosition=bottom;html=1;verticalAlign=top;align=center;shape=mxgraph.floorplan.wall;rotation=0;" parent="1" vertex="1">
                    <mxGeometry x="1040.51" y="730" width="290" height="10" as="geometry"/>
                </mxCell>
                <mxCell id="1sYgjcY_VEmMZmWDU-1L-223" value="" style="verticalLabelPosition=bottom;html=1;verticalAlign=top;align=center;shape=mxgraph.floorplan.wall;rotation=0;" parent="1" vertex="1">
                    <mxGeometry x="1040.51" y="980" width="280" height="10" as="geometry"/>
                </mxCell>
                <mxCell id="1sYgjcY_VEmMZmWDU-1L-224" value="" style="verticalLabelPosition=bottom;html=1;verticalAlign=top;align=center;shape=mxgraph.floorplan.wall;direction=south;rotation=0;" parent="1" vertex="1">
                    <mxGeometry x="1320.51" y="720" width="10" height="10" as="geometry"/>
                </mxCell>
                <mxCell id="1sYgjcY_VEmMZmWDU-1L-247" value="" style="verticalLabelPosition=bottom;html=1;verticalAlign=top;align=center;shape=mxgraph.floorplan.wall;rotation=-90;" parent="1" vertex="1">
                    <mxGeometry x="720.51" y="1010" width="30" height="10" as="geometry"/>
                </mxCell>
                <mxCell id="1sYgjcY_VEmMZmWDU-1L-250" value="" style="verticalLabelPosition=bottom;html=1;verticalAlign=top;align=center;shape=mxgraph.floorplan.wall;rotation=0;" parent="1" vertex="1">
                    <mxGeometry x="880.51" y="989" width="19.94" height="10" as="geometry"/>
                </mxCell>
                <mxCell id="1sYgjcY_VEmMZmWDU-1L-251" value="" style="verticalLabelPosition=bottom;html=1;verticalAlign=top;align=center;shape=mxgraph.floorplan.wall;rotation=0;" parent="1" vertex="1">
                    <mxGeometry x="800.51" y="989" width="80" height="10" as="geometry"/>
                </mxCell>
                <mxCell id="1sYgjcY_VEmMZmWDU-1L-254" value="" style="verticalLabelPosition=bottom;html=1;verticalAlign=top;align=center;shape=mxgraph.floorplan.wall;direction=south;rotation=0;" parent="1" vertex="1">
                    <mxGeometry x="730.51" y="1020" width="10" height="100" as="geometry"/>
                </mxCell>
                <mxCell id="1sYgjcY_VEmMZmWDU-1L-258" value="" style="verticalLabelPosition=bottom;html=1;verticalAlign=top;align=center;shape=mxgraph.floorplan.wall;rotation=0;" parent="1" vertex="1">
                    <mxGeometry x="1030.51" y="860" width="160" height="10" as="geometry"/>
                </mxCell>
                <mxCell id="1sYgjcY_VEmMZmWDU-1L-260" value="" style="verticalLabelPosition=bottom;html=1;verticalAlign=top;align=center;shape=mxgraph.floorplan.wall;direction=south;rotation=0;" parent="1" vertex="1">
                    <mxGeometry x="1560.51" y="1000" width="10" height="290" as="geometry"/>
                </mxCell>
                <mxCell id="1sYgjcY_VEmMZmWDU-1L-262" value="" style="verticalLabelPosition=bottom;html=1;verticalAlign=top;align=center;shape=mxgraph.floorplan.wall;rotation=0;" parent="1" vertex="1">
                    <mxGeometry x="1630.51" y="1280" width="40" height="10" as="geometry"/>
                </mxCell>
                <mxCell id="1sYgjcY_VEmMZmWDU-1L-263" value="" style="verticalLabelPosition=bottom;html=1;verticalAlign=top;align=center;shape=mxgraph.floorplan.wall;direction=south;rotation=0;" parent="1" vertex="1">
                    <mxGeometry x="1850.51" y="1110" width="10" height="40" as="geometry"/>
                </mxCell>
                <mxCell id="1sYgjcY_VEmMZmWDU-1L-264" value="" style="verticalLabelPosition=bottom;html=1;verticalAlign=top;align=center;shape=mxgraph.floorplan.wall;rotation=0;" parent="1" vertex="1">
                    <mxGeometry x="1666.51" y="1280" width="184" height="10" as="geometry"/>
                </mxCell>
                <mxCell id="1sYgjcY_VEmMZmWDU-1L-265" value="" style="verticalLabelPosition=bottom;html=1;verticalAlign=top;align=center;shape=mxgraph.floorplan.wall;direction=south;rotation=0;" parent="1" vertex="1">
                    <mxGeometry x="1850.51" y="1150" width="10" height="140" as="geometry"/>
                </mxCell>
                <mxCell id="1sYgjcY_VEmMZmWDU-1L-269" value="" style="verticalLabelPosition=bottom;html=1;verticalAlign=top;align=center;shape=mxgraph.floorplan.wall;direction=south;rotation=0;" parent="1" vertex="1">
                    <mxGeometry x="1850.51" y="1010" width="10" height="100" as="geometry"/>
                </mxCell>
                <mxCell id="1sYgjcY_VEmMZmWDU-1L-270" value="" style="verticalLabelPosition=bottom;html=1;verticalAlign=top;align=center;shape=mxgraph.floorplan.wall;direction=south;rotation=0;" parent="1" vertex="1">
                    <mxGeometry x="1420.51" y="1010" width="10" height="280" as="geometry"/>
                </mxCell>
                <mxCell id="1sYgjcY_VEmMZmWDU-1L-271" value="" style="verticalLabelPosition=bottom;html=1;verticalAlign=top;align=center;shape=mxgraph.floorplan.wall;direction=south;rotation=0;" parent="1" vertex="1">
                    <mxGeometry x="1850.51" y="990" width="10" height="20" as="geometry"/>
                </mxCell>
                <mxCell id="1sYgjcY_VEmMZmWDU-1L-272" value="" style="verticalLabelPosition=bottom;html=1;verticalAlign=top;align=center;shape=mxgraph.floorplan.wall;rotation=0;" parent="1" vertex="1">
                    <mxGeometry x="1840.51" y="989" width="19.94" height="10" as="geometry"/>
                </mxCell>
                <mxCell id="1sYgjcY_VEmMZmWDU-1L-273" value="" style="verticalLabelPosition=bottom;html=1;verticalAlign=top;align=center;shape=mxgraph.floorplan.wall;direction=south;rotation=0;" parent="1" vertex="1">
                    <mxGeometry x="1770.51" y="1000" width="10" height="120" as="geometry"/>
                </mxCell>
                <mxCell id="1sYgjcY_VEmMZmWDU-1L-277" value="" style="verticalLabelPosition=bottom;html=1;verticalAlign=top;align=center;shape=mxgraph.floorplan.wall;rotation=0;" parent="1" vertex="1">
                    <mxGeometry x="739.76" y="1109.5" width="150" height="10" as="geometry"/>
                </mxCell>
                <mxCell id="1sYgjcY_VEmMZmWDU-1L-278" value="" style="verticalLabelPosition=bottom;html=1;verticalAlign=top;align=center;shape=mxgraph.floorplan.wall;rotation=0;" parent="1" vertex="1">
                    <mxGeometry x="560.51" y="1280" width="250" height="10" as="geometry"/>
                </mxCell>
                <mxCell id="1sYgjcY_VEmMZmWDU-1L-279" value="" style="verticalLabelPosition=bottom;html=1;verticalAlign=top;align=center;shape=mxgraph.floorplan.wall;direction=south;rotation=0;" parent="1" vertex="1">
                    <mxGeometry x="600.51" y="1010" width="10" height="210" as="geometry"/>
                </mxCell>
                <mxCell id="1sYgjcY_VEmMZmWDU-1L-280" value="" style="verticalLabelPosition=bottom;html=1;verticalAlign=top;align=center;shape=mxgraph.floorplan.wall;rotation=0;" parent="1" vertex="1">
                    <mxGeometry x="460.72" y="1280" width="109.79" height="10" as="geometry"/>
                </mxCell>
                <mxCell id="1sYgjcY_VEmMZmWDU-1L-282" value="" style="verticalLabelPosition=bottom;html=1;verticalAlign=top;align=center;shape=mxgraph.floorplan.wall;direction=south;rotation=0;" parent="1" vertex="1">
                    <mxGeometry x="1420.51" y="980" width="10" height="30" as="geometry"/>
                </mxCell>
                <mxCell id="1sYgjcY_VEmMZmWDU-1L-283" value="" style="verticalLabelPosition=bottom;html=1;verticalAlign=top;align=center;shape=mxgraph.floorplan.wall;direction=south;rotation=0;" parent="1" vertex="1">
                    <mxGeometry x="1560.51" y="1000" width="10" height="10" as="geometry"/>
                </mxCell>
                <mxCell id="1sYgjcY_VEmMZmWDU-1L-284" value="" style="verticalLabelPosition=bottom;html=1;verticalAlign=top;align=center;shape=mxgraph.floorplan.wall;rotation=0;" parent="1" vertex="1">
                    <mxGeometry x="1570.51" y="1110" width="290" height="10" as="geometry"/>
                </mxCell>
                <mxCell id="1sYgjcY_VEmMZmWDU-1L-285" value="" style="verticalLabelPosition=bottom;html=1;verticalAlign=top;align=center;shape=mxgraph.floorplan.wall;rotation=0;" parent="1" vertex="1">
                    <mxGeometry x="1430.51" y="1170" width="140" height="10" as="geometry"/>
                </mxCell>
                <mxCell id="1sYgjcY_VEmMZmWDU-1L-287" value="" style="verticalLabelPosition=bottom;html=1;verticalAlign=top;align=center;shape=mxgraph.floorplan.wall;rotation=0;" parent="1" vertex="1">
                    <mxGeometry x="1560.51" y="980" width="10" height="10" as="geometry"/>
                </mxCell>
                <mxCell id="1sYgjcY_VEmMZmWDU-1L-289" value="" style="verticalLabelPosition=bottom;html=1;verticalAlign=top;align=center;shape=mxgraph.floorplan.wall;direction=south;rotation=0;" parent="1" vertex="1">
                    <mxGeometry x="1560.51" y="980" width="10" height="20" as="geometry"/>
                </mxCell>
                <mxCell id="1sYgjcY_VEmMZmWDU-1L-291" value="" style="verticalLabelPosition=bottom;html=1;verticalAlign=top;align=center;shape=mxgraph.floorplan.wall;rotation=-90;" parent="1" vertex="1">
                    <mxGeometry x="1640.51" y="1050" width="110" height="10" as="geometry"/>
                </mxCell>
                <mxCell id="1sYgjcY_VEmMZmWDU-1L-296" value="" style="verticalLabelPosition=bottom;html=1;verticalAlign=top;align=center;shape=mxgraph.floorplan.wall;rotation=0;" parent="1" vertex="1">
                    <mxGeometry x="1520.51" y="1280" width="60" height="10" as="geometry"/>
                </mxCell>
                <mxCell id="1sYgjcY_VEmMZmWDU-1L-297" value="" style="verticalLabelPosition=bottom;html=1;verticalAlign=top;align=center;shape=mxgraph.floorplan.wall;direction=south;rotation=0;" parent="1" vertex="1">
                    <mxGeometry x="1560.51" y="1010" width="10" height="270" as="geometry"/>
                </mxCell>
                <mxCell id="1sYgjcY_VEmMZmWDU-1L-298" value="" style="verticalLabelPosition=bottom;html=1;verticalAlign=top;align=center;shape=mxgraph.floorplan.wall;rotation=0;" parent="1" vertex="1">
                    <mxGeometry x="1420.72" y="1280" width="39.79" height="10" as="geometry"/>
                </mxCell>
                <mxCell id="1sYgjcY_VEmMZmWDU-1L-300" value="" style="verticalLabelPosition=bottom;html=1;verticalAlign=top;align=center;shape=mxgraph.floorplan.wall;rotation=0;" parent="1" vertex="1">
                    <mxGeometry x="1681.76" y="990" width="19.94" height="10" as="geometry"/>
                </mxCell>
                <mxCell id="1sYgjcY_VEmMZmWDU-1L-301" value="" style="verticalLabelPosition=bottom;html=1;verticalAlign=top;align=center;shape=mxgraph.floorplan.wall;rotation=0;" parent="1" vertex="1">
                    <mxGeometry x="1766.51" y="990" width="19.94" height="10" as="geometry"/>
                </mxCell>
                <mxCell id="1sYgjcY_VEmMZmWDU-1L-319" value="" style="verticalLabelPosition=bottom;html=1;verticalAlign=top;align=center;shape=mxgraph.floorplan.wall;direction=south;rotation=0;" parent="1" vertex="1">
                    <mxGeometry x="69.50999999999999" y="970" width="10" height="550" as="geometry"/>
                </mxCell>
                <mxCell id="1sYgjcY_VEmMZmWDU-1L-322" value="" style="verticalLabelPosition=bottom;html=1;verticalAlign=top;align=center;shape=mxgraph.floorplan.wall;rotation=-90;direction=east;" parent="1" vertex="1">
                    <mxGeometry x="355.51" y="1109.5" width="20" height="10" as="geometry"/>
                </mxCell>
                <mxCell id="1sYgjcY_VEmMZmWDU-1L-327" value="" style="verticalLabelPosition=bottom;html=1;verticalAlign=top;align=center;shape=mxgraph.floorplan.wall;direction=south;rotation=0;" parent="1" vertex="1">
                    <mxGeometry x="660.51" y="340" width="10" height="140" as="geometry"/>
                </mxCell>
                <mxCell id="1sYgjcY_VEmMZmWDU-1L-351" value="" style="verticalLabelPosition=bottom;html=1;verticalAlign=top;align=center;shape=mxgraph.floorplan.wall;rotation=0;" parent="1" vertex="1">
                    <mxGeometry x="590.51" y="245" width="30" height="10" as="geometry"/>
                </mxCell>
                <mxCell id="1sYgjcY_VEmMZmWDU-1L-375" value="" style="verticalLabelPosition=bottom;html=1;verticalAlign=top;align=center;shape=mxgraph.floorplan.wall;fontSize=16;" parent="1" vertex="1">
                    <mxGeometry x="470.51" y="570" width="80" height="10" as="geometry"/>
                </mxCell>
                <mxCell id="1sYgjcY_VEmMZmWDU-1L-376" value="" style="verticalLabelPosition=bottom;html=1;verticalAlign=top;align=center;shape=mxgraph.floorplan.wall;direction=south;rotation=0;" parent="1" vertex="1">
                    <mxGeometry x="580.51" y="569" width="10" height="10" as="geometry"/>
                </mxCell>
                <mxCell id="1sYgjcY_VEmMZmWDU-1L-377" value="" style="verticalLabelPosition=bottom;html=1;verticalAlign=top;align=center;shape=mxgraph.floorplan.wall;rotation=0;" parent="1" vertex="1">
                    <mxGeometry x="460.51" y="630" width="140" height="10" as="geometry"/>
                </mxCell>
                <object label="d1" type="robot" name="wall_e" component_Claw="[80, 1]" collision_tag="stopEvent" id="1sYgjcY_VEmMZmWDU-1L-416">
                    <mxCell style="rounded=1;whiteSpace=wrap;html=1;sketch=0;fillStyle=solid;strokeWidth=4;fontSize=23;arcSize=0;" parent="1" vertex="1">
                        <mxGeometry x="1055.51" y="1330" width="30" height="30" as="geometry"/>
                    </mxCell>
                </object>
                <mxCell id="1sYgjcY_VEmMZmWDU-1L-417" value="" style="verticalLabelPosition=bottom;html=1;verticalAlign=top;align=center;shape=mxgraph.floorplan.wall;rotation=0;" parent="1" vertex="1">
                    <mxGeometry x="199.51" y="245" width="30" height="10" as="geometry"/>
                </mxCell>
                <mxCell id="1sYgjcY_VEmMZmWDU-1L-420" value="" style="verticalLabelPosition=bottom;html=1;verticalAlign=top;align=center;shape=mxgraph.floorplan.wall;direction=south;rotation=0;" parent="1" vertex="1">
                    <mxGeometry x="290.51" y="60" width="10" height="195" as="geometry"/>
                </mxCell>
                <mxCell id="1sYgjcY_VEmMZmWDU-1L-421" value="" style="verticalLabelPosition=bottom;html=1;verticalAlign=top;align=center;shape=mxgraph.floorplan.wall;rotation=0;" parent="1" vertex="1">
                    <mxGeometry x="280.51" y="245" width="60" height="10" as="geometry"/>
                </mxCell>
                <mxCell id="1sYgjcY_VEmMZmWDU-1L-480" value="" style="verticalLabelPosition=bottom;html=1;verticalAlign=top;align=center;shape=mxgraph.floorplan.wall;rotation=0;" parent="1" vertex="1">
                    <mxGeometry x="80.50999999999999" y="245" width="60" height="10" as="geometry"/>
                </mxCell>
                <mxCell id="1sYgjcY_VEmMZmWDU-1L-547" value="" style="verticalLabelPosition=bottom;html=1;verticalAlign=top;align=center;shape=mxgraph.floorplan.wall;rotation=0;" parent="1" vertex="1">
                    <mxGeometry x="1470.51" y="1370" width="70" height="10" as="geometry"/>
                </mxCell>
                <mxCell id="1sYgjcY_VEmMZmWDU-1L-555" value="" style="verticalLabelPosition=bottom;html=1;verticalAlign=top;align=center;shape=mxgraph.floorplan.wall;direction=south;rotation=0;" parent="1" vertex="1">
                    <mxGeometry x="460.51" y="1270" width="10" height="20" as="geometry"/>
                </mxCell>
                <object label="" type="map-path" id="S2CpxsG63FQTSz3CtGuM-2">
                    <mxCell style="endArrow=classic;startArrow=classic;html=1;rounded=0;curved=1;exitX=0;exitY=0.5;exitDx=0;exitDy=0;" parent="1" edge="1">
                        <mxGeometry width="50" height="50" relative="1" as="geometry">
                            <mxPoint x="105.50999999999999" y="670" as="sourcePoint"/>
                            <mxPoint x="415.51" y="671" as="targetPoint"/>
                        </mxGeometry>
                    </mxCell>
                </object>
                <mxCell id="wKvVRlLbx7-Db6RnmoMW-1" value="" style="verticalLabelPosition=bottom;html=1;verticalAlign=top;align=center;shape=mxgraph.floorplan.wall;rotation=-180;direction=east;" parent="1" vertex="1">
                    <mxGeometry x="69.50999999999999" y="1540" width="100.03" height="10" as="geometry"/>
                </mxCell>
                <mxCell id="wKvVRlLbx7-Db6RnmoMW-2" value="" style="verticalLabelPosition=bottom;html=1;verticalAlign=top;align=center;shape=mxgraph.floorplan.wall;rotation=-90;direction=east;" parent="1" vertex="1">
                    <mxGeometry x="60" y="1524.49" width="29.02" height="10" as="geometry"/>
                </mxCell>
                <mxCell id="wKvVRlLbx7-Db6RnmoMW-3" value="" style="verticalLabelPosition=bottom;html=1;verticalAlign=top;align=center;shape=mxgraph.floorplan.wall;direction=south;rotation=0;" parent="1" vertex="1">
                    <mxGeometry x="1389.51" y="160" width="10" height="95" as="geometry"/>
                </mxCell>
                <mxCell id="wKvVRlLbx7-Db6RnmoMW-4" value="" style="verticalLabelPosition=bottom;html=1;verticalAlign=top;align=center;shape=mxgraph.floorplan.wall;rotation=0;" parent="1" vertex="1">
                    <mxGeometry x="1345.51" y="245" width="45" height="10" as="geometry"/>
                </mxCell>
                <mxCell id="wKvVRlLbx7-Db6RnmoMW-5" value="" style="verticalLabelPosition=bottom;html=1;verticalAlign=top;align=center;shape=mxgraph.floorplan.wall;direction=south;rotation=0;" parent="1" vertex="1">
                    <mxGeometry x="1729.51" y="160" width="10" height="95" as="geometry"/>
                </mxCell>
                <mxCell id="wKvVRlLbx7-Db6RnmoMW-6" value="" style="verticalLabelPosition=bottom;html=1;verticalAlign=top;align=center;shape=mxgraph.floorplan.wall;rotation=0;" parent="1" vertex="1">
                    <mxGeometry x="1685.51" y="245" width="54" height="10" as="geometry"/>
                </mxCell>
                <mxCell id="wKvVRlLbx7-Db6RnmoMW-7" value="" style="verticalLabelPosition=bottom;html=1;verticalAlign=top;align=center;shape=mxgraph.floorplan.wall;rotation=90;" parent="1" vertex="1">
                    <mxGeometry x="1823.01" y="602.5" width="65" height="10" as="geometry"/>
                </mxCell>
                <mxCell id="wKvVRlLbx7-Db6RnmoMW-8" value="" style="verticalLabelPosition=bottom;html=1;verticalAlign=top;align=center;shape=mxgraph.floorplan.wall;rotation=-180;" parent="1" vertex="1">
                    <mxGeometry x="1785.51" y="630" width="65" height="10" as="geometry"/>
                </mxCell>
                <mxCell id="wKvVRlLbx7-Db6RnmoMW-9" value="" style="verticalLabelPosition=bottom;html=1;verticalAlign=top;align=center;shape=mxgraph.floorplan.wall;rotation=-90;" parent="1" vertex="1">
                    <mxGeometry x="1139.51" y="541.5" width="98" height="10" as="geometry"/>
                </mxCell>
                <mxCell id="wKvVRlLbx7-Db6RnmoMW-10" value="" style="verticalLabelPosition=bottom;html=1;verticalAlign=top;align=center;shape=mxgraph.floorplan.wall;rotation=0;" parent="1" vertex="1">
                    <mxGeometry x="1125.51" y="590" width="68" height="10" as="geometry"/>
                </mxCell>
                <mxCell id="2" value="" style="verticalLabelPosition=bottom;html=1;verticalAlign=top;align=center;shape=mxgraph.floorplan.wall;" parent="1" vertex="1">
                    <mxGeometry x="860" y="480" width="40" height="10" as="geometry"/>
                </mxCell>
                <object label="E1" type="elevator" id="7">
                    <mxCell style="rounded=0;whiteSpace=wrap;html=1;strokeWidth=2;spacing=2;labelBorderColor=none;fontSize=20;dashed=1;dashPattern=12 12;" parent="1" vertex="1">
                        <mxGeometry x="89.02000000000001" y="745" width="140" height="110" as="geometry"/>
                    </mxCell>
                </object>
                <object label="E2" type="elevator" id="8">
                    <mxCell style="rounded=0;whiteSpace=wrap;html=1;strokeWidth=2;rotation=0;fontSize=18;dashed=1;dashPattern=8 8;" parent="1" vertex="1">
                        <mxGeometry x="1576.02" y="1010" width="109.49" height="95" as="geometry"/>
                    </mxCell>
                </object>
                <object label="E1" type="elevator" id="11">
                    <mxCell style="rounded=0;whiteSpace=wrap;html=1;strokeWidth=2;spacing=2;labelBorderColor=none;fontSize=20;dashed=1;dashPattern=8 8;" parent="1" vertex="1">
                        <mxGeometry x="1050" y="745" width="140" height="110" as="geometry"/>
                    </mxCell>
                </object>
                <object label="E2" type="elevator" id="15">
                    <mxCell style="rounded=0;whiteSpace=wrap;html=1;strokeWidth=2;rotation=0;fontSize=18;fontFamily=Helvetica;dashed=1;dashPattern=8 8;" parent="1" vertex="1">
                        <mxGeometry x="615.77" y="1007.5" width="109.49" height="95" as="geometry"/>
                    </mxCell>
                </object>
                <object label="" type="chargeStation" id="20">
                    <mxCell style="ellipse;whiteSpace=wrap;html=1;aspect=fixed;fillColor=none;strokeColor=#000000;dashed=1;strokeWidth=2;" parent="1" vertex="1">
                        <mxGeometry x="490.51" y="1185" width="40" height="40" as="geometry"/>
                    </mxCell>
                </object>
                <object label="" type="chargeStation" id="22">
                    <mxCell style="ellipse;whiteSpace=wrap;html=1;aspect=fixed;fillColor=none;strokeColor=#000000;dashed=1;strokeWidth=2;" parent="1" vertex="1">
                        <mxGeometry x="540.51" y="1185" width="40" height="40" as="geometry"/>
                    </mxCell>
                </object>
                <object label="" type="chargeStation" id="23">
                    <mxCell style="ellipse;whiteSpace=wrap;html=1;aspect=fixed;fillColor=none;strokeColor=#000000;dashed=1;strokeWidth=2;" parent="1" vertex="1">
                        <mxGeometry x="199.51" y="680" width="40" height="40" as="geometry"/>
                    </mxCell>
                </object>
                <object label="" type="chargeStation" id="24">
                    <mxCell style="ellipse;whiteSpace=wrap;html=1;aspect=fixed;fillColor=none;strokeColor=#000000;dashed=1;strokeWidth=2;" parent="1" vertex="1">
                        <mxGeometry x="250.51" y="680" width="40" height="40" as="geometry"/>
                    </mxCell>
                </object>
                <object label="" type="chargeStation" id="25">
                    <mxCell style="ellipse;whiteSpace=wrap;html=1;aspect=fixed;fillColor=none;strokeColor=#000000;dashed=1;strokeWidth=2;" parent="1" vertex="1">
                        <mxGeometry x="300.51" y="680" width="40" height="40" as="geometry"/>
                    </mxCell>
                </object>
                <object label="" type="chargeStation" id="26">
                    <mxCell style="ellipse;whiteSpace=wrap;html=1;aspect=fixed;fillColor=none;strokeColor=#000000;dashed=1;strokeWidth=2;" parent="1" vertex="1">
                        <mxGeometry x="1050.51" y="615" width="40" height="40" as="geometry"/>
                    </mxCell>
                </object>
                <object label="" type="chargeStation" id="27">
                    <mxCell style="ellipse;whiteSpace=wrap;html=1;aspect=fixed;fillColor=none;strokeColor=#000000;dashed=1;strokeWidth=2;" parent="1" vertex="1">
                        <mxGeometry x="1440" y="1190" width="40" height="40" as="geometry"/>
                    </mxCell>
                </object>
                <object label="PC 104" type="label" id="35">
                    <mxCell style="text;html=1;strokeColor=none;fillColor=none;align=center;verticalAlign=middle;whiteSpace=wrap;rounded=0;sketch=0;fillStyle=solid;strokeWidth=4;fontFamily=Helvetica;fontSize=19;fontColor=#000000;textOpacity=50;" parent="1" vertex="1">
                        <mxGeometry x="655.51" y="1445" width="60" height="30" as="geometry"/>
                    </mxCell>
                </object>
                <object label="PC 105" type="label" id="36">
                    <mxCell style="text;html=1;strokeColor=none;fillColor=none;align=center;verticalAlign=middle;whiteSpace=wrap;rounded=0;sketch=0;fillStyle=solid;strokeWidth=4;fontFamily=Helvetica;fontSize=19;fontColor=#000000;textOpacity=50;" parent="1" vertex="1">
                        <mxGeometry x="829.76" y="1445" width="60" height="30" as="geometry"/>
                    </mxCell>
                </object>
                <object label="PC 103" type="label" id="37">
                    <mxCell style="text;html=1;strokeColor=none;fillColor=none;align=center;verticalAlign=middle;whiteSpace=wrap;rounded=0;sketch=0;fillStyle=solid;strokeWidth=4;fontFamily=Helvetica;fontSize=19;fontColor=#000000;textOpacity=50;" parent="1" vertex="1">
                        <mxGeometry x="480.51" y="1445" width="60" height="30" as="geometry"/>
                    </mxCell>
                </object>
                <object label="PC 102" type="label" id="38">
                    <mxCell style="text;html=1;strokeColor=none;fillColor=none;align=center;verticalAlign=middle;whiteSpace=wrap;rounded=0;sketch=0;fillStyle=solid;strokeWidth=4;fontFamily=Helvetica;fontSize=19;fontColor=#000000;textOpacity=50;" parent="1" vertex="1">
                        <mxGeometry x="310.51" y="1445" width="60" height="30" as="geometry"/>
                    </mxCell>
                </object>
                <object label="PC 101" type="label" id="39">
                    <mxCell style="text;html=1;strokeColor=none;fillColor=none;align=center;verticalAlign=middle;whiteSpace=wrap;rounded=0;sketch=0;fillStyle=solid;strokeWidth=4;fontFamily=Helvetica;fontSize=19;fontColor=#000000;textOpacity=50;" parent="1" vertex="1">
                        <mxGeometry x="140.51" y="1445" width="60" height="30" as="geometry"/>
                    </mxCell>
                </object>
                <object label="STAFF ROOM" type="label" id="40">
                    <mxCell style="text;html=1;strokeColor=none;fillColor=none;align=center;verticalAlign=middle;whiteSpace=wrap;rounded=0;sketch=0;fillStyle=solid;strokeWidth=4;fontFamily=Helvetica;fontSize=19;fontColor=#000000;textOpacity=50;" parent="1" vertex="1">
                        <mxGeometry x="120.50999999999999" y="1210" width="60" height="30" as="geometry"/>
                    </mxCell>
                </object>
                <object label="SECURITY" type="label" id="41">
                    <mxCell style="text;html=1;strokeColor=none;fillColor=none;align=center;verticalAlign=middle;whiteSpace=wrap;rounded=0;sketch=0;fillStyle=solid;strokeWidth=4;fontFamily=Helvetica;fontSize=19;fontColor=#000000;textOpacity=50;" parent="1" vertex="1">
                        <mxGeometry x="275.51" y="1072.5" width="60" height="30" as="geometry"/>
                    </mxCell>
                </object>
                <object label="CLEANING" type="label" id="42">
                    <mxCell style="text;html=1;strokeColor=none;fillColor=none;align=center;verticalAlign=middle;whiteSpace=wrap;rounded=0;sketch=0;fillStyle=solid;strokeWidth=4;fontFamily=Helvetica;fontSize=19;fontColor=#000000;textOpacity=50;" parent="1" vertex="1">
                        <mxGeometry x="275.51" y="1135" width="60" height="30" as="geometry"/>
                    </mxCell>
                </object>
                <object label="WC" type="label" id="43">
                    <mxCell style="text;html=1;strokeColor=none;fillColor=none;align=center;verticalAlign=middle;whiteSpace=wrap;rounded=0;sketch=0;fillStyle=solid;strokeWidth=4;fontFamily=Helvetica;fontSize=19;fontColor=#000000;textOpacity=50;" parent="1" vertex="1">
                        <mxGeometry x="784.76" y="1040" width="60" height="30" as="geometry"/>
                    </mxCell>
                </object>
                <object label="MAINTENANCE ROOM" type="label" id="44">
                    <mxCell style="text;html=1;strokeColor=none;fillColor=none;align=center;verticalAlign=middle;whiteSpace=wrap;rounded=0;sketch=0;fillStyle=solid;strokeWidth=4;fontFamily=Helvetica;fontSize=19;fontColor=#000000;textOpacity=50;" parent="1" vertex="1">
                        <mxGeometry x="95.25999999999999" y="640" width="250.49" height="30" as="geometry"/>
                    </mxCell>
                </object>
                <object label="SERVERS ROOM" type="label" id="45">
                    <mxCell style="text;html=1;strokeColor=none;fillColor=none;align=center;verticalAlign=middle;whiteSpace=wrap;rounded=0;sketch=0;fillStyle=solid;strokeWidth=4;fontFamily=Helvetica;fontSize=12;fontColor=#000000;textOpacity=50;" parent="1" vertex="1">
                        <mxGeometry x="500.51" y="590" width="60" height="30" as="geometry"/>
                    </mxCell>
                </object>
                <object label="OFFICE" type="label" id="47">
                    <mxCell style="text;html=1;strokeColor=none;fillColor=none;align=center;verticalAlign=middle;whiteSpace=wrap;rounded=0;sketch=0;fillStyle=solid;strokeWidth=4;fontFamily=Helvetica;fontSize=15;fontColor=#000000;textOpacity=50;" parent="1" vertex="1">
                        <mxGeometry x="500.51" y="515" width="60" height="30" as="geometry"/>
                    </mxCell>
                </object>
                <object label="EXAM ROOM" type="label" id="49">
                    <mxCell style="text;html=1;strokeColor=none;fillColor=none;align=center;verticalAlign=middle;whiteSpace=wrap;rounded=0;sketch=0;fillStyle=solid;strokeWidth=4;fontFamily=Helvetica;fontSize=19;fontColor=#000000;textOpacity=50;" parent="1" vertex="1">
                        <mxGeometry x="520.51" y="395" width="60" height="30" as="geometry"/>
                    </mxCell>
                </object>
                <object label="TRIAGE" type="label" id="50">
                    <mxCell style="text;html=1;strokeColor=none;fillColor=none;align=center;verticalAlign=middle;whiteSpace=wrap;rounded=0;sketch=0;fillStyle=solid;strokeWidth=4;fontFamily=Helvetica;fontSize=19;fontColor=#000000;textOpacity=50;" parent="1" vertex="1">
                        <mxGeometry x="750.51" y="450" width="60" height="30" as="geometry"/>
                    </mxCell>
                </object>
                <object label="PHARMACY" type="label" id="51">
                    <mxCell style="text;html=1;strokeColor=none;fillColor=none;align=center;verticalAlign=middle;whiteSpace=wrap;rounded=0;sketch=0;fillStyle=solid;strokeWidth=4;fontFamily=Helvetica;fontSize=19;fontColor=#000000;textOpacity=50;" parent="1" vertex="1">
                        <mxGeometry x="119.48" y="95" width="140" height="30" as="geometry"/>
                    </mxCell>
                </object>
                <object label="NURSES ROOM" type="label" id="52">
                    <mxCell style="text;html=1;strokeColor=none;fillColor=none;align=center;verticalAlign=middle;whiteSpace=wrap;rounded=0;sketch=0;fillStyle=solid;strokeWidth=4;fontFamily=Helvetica;fontSize=19;fontColor=#000000;textOpacity=50;horizontal=0;" parent="1" vertex="1">
                        <mxGeometry x="318.76" y="120" width="93.49" height="70" as="geometry"/>
                    </mxCell>
                </object>
                <object label="EXAM ROOM 1" type="label" id="53">
                    <mxCell style="text;html=1;strokeColor=none;fillColor=none;align=center;verticalAlign=middle;whiteSpace=wrap;rounded=0;sketch=0;fillStyle=solid;strokeWidth=4;fontFamily=Helvetica;fontSize=19;fontColor=#000000;textOpacity=50;horizontal=0;" parent="1" vertex="1">
                        <mxGeometry x="473.26" y="122.5" width="93.49" height="70" as="geometry"/>
                    </mxCell>
                </object>
                <object label="EXAM ROOM 2" type="label" id="54">
                    <mxCell style="text;html=1;strokeColor=none;fillColor=none;align=center;verticalAlign=middle;whiteSpace=wrap;rounded=0;sketch=0;fillStyle=solid;strokeWidth=4;fontFamily=Helvetica;fontSize=19;fontColor=#000000;textOpacity=50;horizontal=0;" parent="1" vertex="1">
                        <mxGeometry x="646.27" y="120" width="93.49" height="70" as="geometry"/>
                    </mxCell>
                </object>
                <object label="EXAM ROOM 3" type="label" id="55">
                    <mxCell style="text;html=1;strokeColor=none;fillColor=none;align=center;verticalAlign=middle;whiteSpace=wrap;rounded=0;sketch=0;fillStyle=solid;strokeWidth=4;fontFamily=Helvetica;fontSize=19;fontColor=#000000;textOpacity=50;horizontal=0;" parent="1" vertex="1">
                        <mxGeometry x="821.51" y="120" width="93.49" height="70" as="geometry"/>
                    </mxCell>
                </object>
                <object label="ER1" type="label" id="57">
                    <mxCell style="text;html=1;strokeColor=none;fillColor=none;align=center;verticalAlign=middle;whiteSpace=wrap;rounded=0;sketch=0;fillStyle=solid;strokeWidth=4;fontFamily=Helvetica;fontSize=19;fontColor=#000000;textOpacity=50;" parent="1" vertex="1">
                        <mxGeometry x="120.50999999999999" y="380" width="60" height="30" as="geometry"/>
                    </mxCell>
                </object>
                <object label="ER2" type="label" id="58">
                    <mxCell style="text;html=1;strokeColor=none;fillColor=none;align=center;verticalAlign=middle;whiteSpace=wrap;rounded=0;sketch=0;fillStyle=solid;strokeWidth=4;fontFamily=Helvetica;fontSize=19;fontColor=#000000;textOpacity=50;" parent="1" vertex="1">
                        <mxGeometry x="120.50999999999999" y="460" width="60" height="30" as="geometry"/>
                    </mxCell>
                </object>
                <object label="ER3" type="label" id="59">
                    <mxCell style="text;html=1;strokeColor=none;fillColor=none;align=center;verticalAlign=middle;whiteSpace=wrap;rounded=0;sketch=0;fillStyle=solid;strokeWidth=4;fontFamily=Helvetica;fontSize=19;fontColor=#000000;textOpacity=50;" parent="1" vertex="1">
                        <mxGeometry x="119.47999999999999" y="539" width="60" height="30" as="geometry"/>
                    </mxCell>
                </object>
                <object label="ER4" type="label" id="60">
                    <mxCell style="text;html=1;strokeColor=none;fillColor=none;align=center;verticalAlign=middle;whiteSpace=wrap;rounded=0;sketch=0;fillStyle=solid;strokeWidth=4;fontFamily=Helvetica;fontSize=19;fontColor=#000000;textOpacity=50;" parent="1" vertex="1">
                        <mxGeometry x="265.51" y="380" width="60" height="30" as="geometry"/>
                    </mxCell>
                </object>
                <object label="ER5" type="label" id="61">
                    <mxCell style="text;html=1;strokeColor=none;fillColor=none;align=center;verticalAlign=middle;whiteSpace=wrap;rounded=0;sketch=0;fillStyle=solid;strokeWidth=4;fontFamily=Helvetica;fontSize=19;fontColor=#000000;textOpacity=50;" parent="1" vertex="1">
                        <mxGeometry x="265.51" y="450" width="60" height="30" as="geometry"/>
                    </mxCell>
                </object>
                <object label="NURSES STATION" type="label" id="62">
                    <mxCell style="text;html=1;strokeColor=none;fillColor=none;align=center;verticalAlign=middle;whiteSpace=wrap;rounded=0;sketch=0;fillStyle=solid;strokeWidth=4;fontFamily=Helvetica;fontSize=12;fontColor=#000000;textOpacity=50;" parent="1" vertex="1">
                        <mxGeometry x="258.76" y="569" width="60" height="30" as="geometry"/>
                    </mxCell>
                </object>
                <object label="PC 201" type="label" id="64">
                    <mxCell style="text;html=1;strokeColor=none;fillColor=none;align=center;verticalAlign=middle;whiteSpace=wrap;rounded=0;sketch=0;fillStyle=solid;strokeWidth=4;fontFamily=Helvetica;fontSize=19;fontColor=#000000;textOpacity=50;" parent="1" vertex="1">
                        <mxGeometry x="1100" y="140" width="60" height="30" as="geometry"/>
                    </mxCell>
                </object>
                <object label="PC 202" type="label" id="65">
                    <mxCell style="text;html=1;strokeColor=none;fillColor=none;align=center;verticalAlign=middle;whiteSpace=wrap;rounded=0;sketch=0;fillStyle=solid;strokeWidth=4;fontFamily=Helvetica;fontSize=19;fontColor=#000000;textOpacity=50;" parent="1" vertex="1">
                        <mxGeometry x="1269.51" y="140" width="60" height="30" as="geometry"/>
                    </mxCell>
                </object>
                <object label="PC 203" type="label" id="66">
                    <mxCell style="text;html=1;strokeColor=none;fillColor=none;align=center;verticalAlign=middle;whiteSpace=wrap;rounded=0;sketch=0;fillStyle=solid;strokeWidth=4;fontFamily=Helvetica;fontSize=19;fontColor=#000000;textOpacity=50;" parent="1" vertex="1">
                        <mxGeometry x="1449.51" y="140" width="60" height="30" as="geometry"/>
                    </mxCell>
                </object>
                <object label="PC 204" type="label" id="67">
                    <mxCell style="text;html=1;strokeColor=none;fillColor=none;align=center;verticalAlign=middle;whiteSpace=wrap;rounded=0;sketch=0;fillStyle=solid;strokeWidth=4;fontFamily=Helvetica;fontSize=19;fontColor=#000000;textOpacity=50;" parent="1" vertex="1">
                        <mxGeometry x="1619.51" y="140" width="60" height="30" as="geometry"/>
                    </mxCell>
                </object>
                <object label="PC 205" type="label" id="68">
                    <mxCell style="text;html=1;strokeColor=none;fillColor=none;align=center;verticalAlign=middle;whiteSpace=wrap;rounded=0;sketch=0;fillStyle=solid;strokeWidth=4;fontFamily=Helvetica;fontSize=19;fontColor=#000000;textOpacity=50;" parent="1" vertex="1">
                        <mxGeometry x="1790.51" y="140" width="60" height="30" as="geometry"/>
                    </mxCell>
                </object>
                <object label="LABORATORY" type="label" id="70">
                    <mxCell style="text;html=1;strokeColor=none;fillColor=none;align=center;verticalAlign=middle;whiteSpace=wrap;rounded=0;sketch=0;fillStyle=solid;strokeWidth=4;fontFamily=Helvetica;fontSize=19;fontColor=#000000;textOpacity=50;horizontal=0;" parent="1" vertex="1">
                        <mxGeometry x="1207.02" y="450" width="93.49" height="70" as="geometry"/>
                    </mxCell>
                </object>
                <object label="STORAGE" type="label" id="71">
                    <mxCell style="text;html=1;strokeColor=none;fillColor=none;align=center;verticalAlign=middle;whiteSpace=wrap;rounded=0;sketch=0;fillStyle=solid;strokeWidth=4;fontFamily=Helvetica;fontSize=19;fontColor=#000000;textOpacity=50;" parent="1" vertex="1">
                        <mxGeometry x="1455.51" y="395" width="60" height="30" as="geometry"/>
                    </mxCell>
                </object>
                <object label="CONTROL ROOM" type="label" id="72">
                    <mxCell style="text;html=1;strokeColor=none;fillColor=none;align=center;verticalAlign=middle;whiteSpace=wrap;rounded=0;sketch=0;fillStyle=solid;strokeWidth=4;fontFamily=Helvetica;fontSize=12;fontColor=#000000;textOpacity=50;horizontal=0;" parent="1" vertex="1">
                        <mxGeometry x="1460.51" y="551.5" width="60" height="30" as="geometry"/>
                    </mxCell>
                </object>
                <object label="STORAGE" type="label" id="73">
                    <mxCell style="text;html=1;strokeColor=none;fillColor=none;align=center;verticalAlign=middle;whiteSpace=wrap;rounded=0;sketch=0;fillStyle=solid;strokeWidth=4;fontFamily=Helvetica;fontSize=19;fontColor=#000000;textOpacity=50;" parent="1" vertex="1">
                        <mxGeometry x="1470" y="1230" width="60" height="30" as="geometry"/>
                    </mxCell>
                </object>
                <object label="WC" type="label" id="74">
                    <mxCell style="text;html=1;strokeColor=none;fillColor=none;align=center;verticalAlign=middle;whiteSpace=wrap;rounded=0;sketch=0;fillStyle=solid;strokeWidth=4;fontFamily=Helvetica;fontSize=19;fontColor=#000000;textOpacity=50;" parent="1" vertex="1">
                        <mxGeometry x="1704.51" y="1040" width="60" height="30" as="geometry"/>
                    </mxCell>
                </object>
                <object label="WC" type="label" id="75">
                    <mxCell style="text;html=1;strokeColor=none;fillColor=none;align=center;verticalAlign=middle;whiteSpace=wrap;rounded=0;sketch=0;fillStyle=solid;strokeWidth=4;fontFamily=Helvetica;fontSize=19;fontColor=#000000;textOpacity=50;" parent="1" vertex="1">
                        <mxGeometry x="1785.51" y="1040" width="60" height="30" as="geometry"/>
                    </mxCell>
                </object>
                <object label="PC 207" type="label" id="76">
                    <mxCell style="text;html=1;strokeColor=none;fillColor=none;align=center;verticalAlign=middle;whiteSpace=wrap;rounded=0;sketch=0;fillStyle=solid;strokeWidth=4;fontFamily=Helvetica;fontSize=19;fontColor=#000000;textOpacity=50;" parent="1" vertex="1">
                        <mxGeometry x="1560.51" y="1445" width="60" height="30" as="geometry"/>
                    </mxCell>
                </object>
                <object label="PC 208" type="label" id="77">
                    <mxCell style="text;html=1;strokeColor=none;fillColor=none;align=center;verticalAlign=middle;whiteSpace=wrap;rounded=0;sketch=0;fillStyle=solid;strokeWidth=4;fontFamily=Helvetica;fontSize=19;fontColor=#000000;textOpacity=50;" parent="1" vertex="1">
                        <mxGeometry x="1690.51" y="1440" width="60" height="30" as="geometry"/>
                    </mxCell>
                </object>
                <object label="PC 209" type="label" id="78">
                    <mxCell style="text;html=1;strokeColor=none;fillColor=none;align=center;verticalAlign=middle;whiteSpace=wrap;rounded=0;sketch=0;fillStyle=solid;strokeWidth=4;fontFamily=Helvetica;fontSize=19;fontColor=#000000;textOpacity=50;" parent="1" vertex="1">
                        <mxGeometry x="1820.48" y="1440" width="60" height="30" as="geometry"/>
                    </mxCell>
                </object>
                <object label="ICU 201" type="label" id="79">
                    <mxCell style="text;html=1;strokeColor=none;fillColor=none;align=center;verticalAlign=middle;whiteSpace=wrap;rounded=0;sketch=0;fillStyle=solid;strokeWidth=4;fontFamily=Helvetica;fontSize=19;fontColor=#000000;textOpacity=50;" parent="1" vertex="1">
                        <mxGeometry x="1064.51" y="1400" width="60" height="30" as="geometry"/>
                    </mxCell>
                </object>
                <object label="ICU 202" type="label" id="80">
                    <mxCell style="text;html=1;strokeColor=none;fillColor=none;align=center;verticalAlign=middle;whiteSpace=wrap;rounded=0;sketch=0;fillStyle=solid;strokeWidth=4;fontFamily=Helvetica;fontSize=19;fontColor=#000000;textOpacity=50;" parent="1" vertex="1">
                        <mxGeometry x="1190.51" y="1400" width="60" height="30" as="geometry"/>
                    </mxCell>
                </object>
                <object label="STAIRS" type="label" id="81">
                    <mxCell style="text;html=1;strokeColor=none;fillColor=none;align=center;verticalAlign=middle;whiteSpace=wrap;rounded=0;sketch=0;fillStyle=solid;strokeWidth=4;fontFamily=Helvetica;fontSize=19;fontColor=#000000;textOpacity=50;" parent="1" vertex="1">
                        <mxGeometry x="1470" y="950" width="60" height="30" as="geometry"/>
                    </mxCell>
                </object>
                <object label="STAIRS" type="label" id="82">
                    <mxCell style="text;html=1;strokeColor=none;fillColor=none;align=center;verticalAlign=middle;whiteSpace=wrap;rounded=0;sketch=0;fillStyle=solid;strokeWidth=4;fontFamily=Helvetica;fontSize=19;fontColor=#000000;textOpacity=50;" parent="1" vertex="1">
                        <mxGeometry x="510.51" y="950" width="60" height="30" as="geometry"/>
                    </mxCell>
                </object>
                <mxCell id="84" value="" style="rounded=0;whiteSpace=wrap;html=1;sketch=0;fillStyle=solid;strokeWidth=4;fontFamily=Helvetica;fontSize=12;fillColor=none;strokeColor=#457B9D;" parent="1" vertex="1">
                    <mxGeometry x="482.74" y="1100" width="106.74" height="60" as="geometry"/>
                </mxCell>
                <mxCell id="85" value="" style="rounded=0;whiteSpace=wrap;html=1;sketch=0;fillStyle=solid;strokeWidth=4;fontFamily=Helvetica;fontSize=12;fillColor=none;strokeColor=#457B9D;" parent="1" vertex="1">
                    <mxGeometry x="482.74" y="1080" width="106.74" height="20" as="geometry"/>
                </mxCell>
                <mxCell id="86" value="" style="rounded=0;whiteSpace=wrap;html=1;sketch=0;fillStyle=solid;strokeWidth=4;fontFamily=Helvetica;fontSize=12;fillColor=none;strokeColor=#457B9D;" parent="1" vertex="1">
                    <mxGeometry x="482.74" y="1060" width="106.74" height="20" as="geometry"/>
                </mxCell>
                <mxCell id="87" value="" style="rounded=0;whiteSpace=wrap;html=1;sketch=0;fillStyle=solid;strokeWidth=4;fontFamily=Helvetica;fontSize=12;fillColor=none;strokeColor=#457B9D;" parent="1" vertex="1">
                    <mxGeometry x="482.74" y="1040" width="106.74" height="20" as="geometry"/>
                </mxCell>
                <mxCell id="88" value="" style="rounded=0;whiteSpace=wrap;html=1;sketch=0;fillStyle=solid;strokeWidth=4;fontFamily=Helvetica;fontSize=12;fillColor=none;strokeColor=#457B9D;" parent="1" vertex="1">
                    <mxGeometry x="482.74" y="1020" width="106.74" height="20" as="geometry"/>
                </mxCell>
                <mxCell id="89" value="" style="rounded=0;whiteSpace=wrap;html=1;sketch=0;fillStyle=solid;strokeWidth=4;fontFamily=Helvetica;fontSize=12;fillColor=none;strokeColor=#457B9D;" parent="1" vertex="1">
                    <mxGeometry x="482.74" y="1000" width="106.74" height="20" as="geometry"/>
                </mxCell>
                <mxCell id="96" value="" style="rounded=0;whiteSpace=wrap;html=1;sketch=0;fillStyle=solid;strokeWidth=4;fontFamily=Helvetica;fontSize=12;fillColor=none;strokeColor=#457B9D;" parent="1" vertex="1">
                    <mxGeometry x="1443.77" y="1099" width="106.74" height="60" as="geometry"/>
                </mxCell>
                <mxCell id="97" value="" style="rounded=0;whiteSpace=wrap;html=1;sketch=0;fillStyle=solid;strokeWidth=4;fontFamily=Helvetica;fontSize=12;fillColor=none;strokeColor=#457B9D;" parent="1" vertex="1">
                    <mxGeometry x="1443.77" y="1079" width="106.74" height="20" as="geometry"/>
                </mxCell>
                <mxCell id="98" value="" style="rounded=0;whiteSpace=wrap;html=1;sketch=0;fillStyle=solid;strokeWidth=4;fontFamily=Helvetica;fontSize=12;fillColor=none;strokeColor=#457B9D;" parent="1" vertex="1">
                    <mxGeometry x="1443.77" y="1059" width="106.74" height="20" as="geometry"/>
                </mxCell>
                <mxCell id="99" value="" style="rounded=0;whiteSpace=wrap;html=1;sketch=0;fillStyle=solid;strokeWidth=4;fontFamily=Helvetica;fontSize=12;fillColor=none;strokeColor=#457B9D;" parent="1" vertex="1">
                    <mxGeometry x="1443.77" y="1039" width="106.74" height="20" as="geometry"/>
                </mxCell>
                <mxCell id="100" value="" style="rounded=0;whiteSpace=wrap;html=1;sketch=0;fillStyle=solid;strokeWidth=4;fontFamily=Helvetica;fontSize=12;fillColor=none;strokeColor=#457B9D;" parent="1" vertex="1">
                    <mxGeometry x="1443.77" y="1019" width="106.74" height="20" as="geometry"/>
                </mxCell>
                <mxCell id="101" value="" style="rounded=0;whiteSpace=wrap;html=1;sketch=0;fillStyle=solid;strokeWidth=4;fontFamily=Helvetica;fontSize=12;fillColor=none;strokeColor=#457B9D;" parent="1" vertex="1">
                    <mxGeometry x="1443.77" y="999" width="106.74" height="20" as="geometry"/>
                </mxCell>
                <object label="STAFF ELEVATOR" type="label" id="103">
                    <mxCell style="text;html=1;strokeColor=none;fillColor=none;align=center;verticalAlign=middle;whiteSpace=wrap;rounded=0;sketch=0;fillStyle=solid;strokeWidth=4;fontFamily=Helvetica;fontSize=19;fontColor=#000000;textOpacity=50;" parent="1" vertex="1">
                        <mxGeometry x="239.51" y="825" width="180.49" height="30" as="geometry"/>
                    </mxCell>
                </object>
                <object label="FIRST FLOOR" type="label" id="105">
                    <mxCell style="text;html=1;strokeColor=none;fillColor=none;align=center;verticalAlign=middle;whiteSpace=wrap;rounded=0;sketch=0;fillStyle=solid;strokeWidth=4;fontFamily=Helvetica;fontSize=44;fontColor=#000000;textOpacity=50;" parent="1" vertex="1">
                        <mxGeometry x="470" y="690" width="400" height="155" as="geometry"/>
                    </mxCell>
                </object>
                <object label="SECOND FLOOR" type="label" id="106">
                    <mxCell style="text;html=1;strokeColor=none;fillColor=none;align=center;verticalAlign=middle;whiteSpace=wrap;rounded=0;sketch=0;fillStyle=solid;strokeWidth=4;fontFamily=Helvetica;fontSize=44;fontColor=#000000;textOpacity=50;" parent="1" vertex="1">
                        <mxGeometry x="1430.77" y="690" width="400" height="155" as="geometry"/>
                    </mxCell>
                </object>
                <object label="PUBLIC ELEVATOR" type="label" id="104">
                    <mxCell style="text;html=1;strokeColor=none;fillColor=none;align=center;verticalAlign=middle;whiteSpace=wrap;rounded=0;sketch=0;fillStyle=solid;strokeWidth=4;fontFamily=Helvetica;fontSize=19;fontColor=#000000;textOpacity=50;" parent="1" vertex="1">
                        <mxGeometry x="594.99" y="940" width="180.49" height="30" as="geometry"/>
                    </mxCell>
                </object>
                <object label="" type="pickable" weight="0.2" name="medicine" id="107">
                    <mxCell style="whiteSpace=wrap;html=1;aspect=fixed;fillColor=#a20025;fontColor=#ffffff;strokeColor=#6F0000;" vertex="1" parent="1">
                        <mxGeometry x="1810.51" y="1370" width="9.49" height="9.49" as="geometry"/>
                    </mxCell>
                </object>
            </root>
        </mxGraphModel>
    </diagram>
</mxfile>